<svg width="130" height="130" viewBox="0 0 130 130" fill="none" xmlns="http://www.w3.org/2000/svg">
<g filter="url(#filter0_f_267_93)">
<circle cx="65.2068" cy="64.679" r="51.3298" fill="#52749A" fill-opacity="0.2"/>
</g>
<g filter="url(#filter1_d_267_93)">
<path d="M81.3328 22.039L80.9973 22.9425C80.5087 22.7659 80.1704 22.6622 79.9826 22.6313C79.7904 22.5988 79.5836 22.6387 79.3621 22.7509C79.1405 22.8631 78.9822 23.0473 78.887 23.3037C78.7712 23.6155 78.7838 23.9022 78.9249 24.1636C79.0602 24.4278 79.2923 24.6209 79.6212 24.7431C80.2706 24.9843 80.8676 24.7709 81.4122 24.1029L82.4414 24.6893C81.6252 25.8398 80.5635 26.1723 79.2562 25.6868C78.5299 25.417 78.0355 25.0074 77.7729 24.4577C77.5061 23.9065 77.475 23.3553 77.6797 22.8042C77.8859 22.2489 78.3193 21.9066 78.9797 21.7776C78.7062 21.467 78.5371 21.1368 78.4726 20.7871C78.4064 20.4417 78.4455 20.0746 78.5899 19.6858C78.8168 19.0749 79.223 18.6618 79.8085 18.4466C80.394 18.2314 81.0862 18.2721 81.8851 18.5688C83.4359 19.1448 84.079 20.1687 83.8143 21.6406L82.6456 21.4691C82.7092 20.9969 82.6358 20.5856 82.4256 20.2353C82.2112 19.8834 81.9095 19.6353 81.5208 19.4909C81.132 19.3465 80.769 19.3356 80.4318 19.4583C80.0886 19.5837 79.8536 19.8173 79.7267 20.159C79.6283 20.4239 79.6238 20.6848 79.7132 20.9416C79.8025 21.1984 79.9303 21.3844 80.0966 21.4996C80.2613 21.6191 80.585 21.7685 81.0677 21.9478C81.1062 21.9621 81.1945 21.9925 81.3328 22.039Z" fill="#444444"/>
<path d="M70.9669 17.0895C71.4801 16.7823 71.9588 16.5848 72.4031 16.4971C72.8428 16.4087 73.301 16.4042 73.7775 16.4835C74.5642 16.6146 75.137 16.9063 75.4959 17.3588C75.8541 17.8158 75.9834 18.3432 75.8838 18.9411C75.8254 19.2917 75.6936 19.5978 75.4883 19.8593C75.2778 20.1246 75.0298 20.3235 74.7444 20.4561C74.4544 20.588 74.1402 20.672 73.8015 20.708C73.5528 20.7312 73.183 20.732 72.6923 20.7103C71.6929 20.664 70.9481 20.6831 70.4582 20.7679C70.426 20.9334 70.4061 21.0387 70.3986 21.0837C70.3163 21.5781 70.3729 21.9456 70.5684 22.1861C70.8329 22.512 71.2709 22.7258 71.8822 22.8277C72.4532 22.9228 72.8926 22.892 73.2005 22.7354C73.5031 22.5825 73.762 22.263 73.9769 21.7767L75.1368 22.1362C74.9443 22.6262 74.6986 23.0057 74.3996 23.2747C74.1 23.5482 73.7025 23.7292 73.2073 23.8176C72.7114 23.9106 72.1554 23.9058 71.5396 23.8032C70.9282 23.7014 70.4434 23.5467 70.0853 23.3392C69.7272 23.1317 69.4765 22.9028 69.3334 22.6526C69.1895 22.4069 69.1093 22.1117 69.0928 21.7671C69.0868 21.5535 69.1287 21.1771 69.2186 20.6376L69.4881 19.0193C69.6761 17.891 69.7704 17.1721 69.7711 16.8626C69.7666 16.557 69.7107 16.2543 69.6036 15.9546L70.8713 16.1658C70.9552 16.4385 70.9871 16.7464 70.9669 17.0895ZM70.6165 19.8171C71.087 19.7107 71.7733 19.6679 72.6753 19.6888C73.1863 19.7 73.5527 19.6778 73.7744 19.6224C73.9962 19.5669 74.1779 19.4609 74.3195 19.3043C74.4603 19.1522 74.5483 18.9705 74.5835 18.7592C74.6374 18.4355 74.561 18.1456 74.3542 17.8894C74.1429 17.6324 73.8012 17.4646 73.3292 17.386C72.8617 17.3081 72.429 17.34 72.0312 17.4816C71.6326 17.6278 71.3183 17.8642 71.0884 18.1909C70.9123 18.4434 70.7798 18.8371 70.6906 19.372L70.6165 19.8171Z" fill="#444444"/>
<path d="M66.3699 23.2157L60.6443 23.3981L60.4131 16.142L61.643 16.1028L61.8417 22.3409L65.1076 22.2368L64.9089 15.9988L66.1387 15.9596L66.3699 23.2157Z" fill="#444444"/>
<path d="M58.2969 20.2011C58.6018 21.5105 58.4636 22.5651 57.8825 23.3648C57.3963 24.0302 56.716 24.4646 55.8416 24.6682C54.8696 24.8945 54.0007 24.7599 53.2349 24.2644C52.4702 23.7733 51.9571 22.9663 51.6956 21.8434C51.4838 20.9335 51.4545 20.1846 51.6077 19.5968C51.7576 19.0144 52.0608 18.518 52.5173 18.1076C52.9695 17.6981 53.504 17.4216 54.121 17.278C55.1108 17.0475 55.9859 17.1783 56.7462 17.6704C57.502 18.1636 58.0189 19.0071 58.2969 20.2011ZM57.0652 20.4879C56.8544 19.5824 56.4988 18.9493 55.9983 18.5885C55.4989 18.2322 54.9496 18.1238 54.3504 18.2633C53.7556 18.4018 53.3135 18.7434 53.0238 19.2881C52.7342 19.8328 52.6974 20.569 52.9134 21.4967C53.1169 22.3711 53.4707 22.9859 53.9745 23.3412C54.475 23.702 55.0203 23.8136 55.6107 23.6762C56.2099 23.5367 56.6548 23.1968 56.9455 22.6565C57.2361 22.1162 57.276 21.3934 57.0652 20.4879Z" fill="#444444"/>
<path d="M50.1903 26.369L45.0005 28.7618L41.9609 22.169L43.0721 21.6566L45.6853 27.3245L48.6465 25.9592L47.1324 22.6752C46.7794 21.9096 46.5714 21.3932 46.5085 21.1262C46.4456 20.8591 46.4839 20.583 46.6234 20.2979C46.763 20.0127 47.0438 19.7728 47.4659 19.5782C47.7267 19.458 48.0344 19.3362 48.389 19.2129L48.8183 20.144L48.3279 20.3702C48.0961 20.477 47.9411 20.5761 47.8627 20.6674C47.7863 20.7629 47.7554 20.87 47.77 20.9887C47.7846 21.1074 47.9235 21.4524 48.1868 22.0235L50.1903 26.369Z" fill="#444444"/>
<path d="M43.4125 29.9718L42.4174 30.6956L40.64 28.2523L37.8815 30.2589L39.6589 32.7023L38.6639 33.4261L34.3933 27.5553L35.3883 26.8315L37.2823 29.4352L40.0408 27.4286L38.1468 24.8249L39.1418 24.101L43.4125 29.9718Z" fill="#444444"/>
<path d="M37.3991 34.815L36.5649 35.7196L32.4946 31.9656L34.2523 38.2271L33.3532 39.2019L28.0166 34.28L28.8508 33.3755L32.8959 37.1063L31.1634 30.868L32.0625 29.8932L37.3991 34.815Z" fill="#444444"/>
<path d="M32.4687 40.6333L29.3628 45.6489L28.4969 45.1127L29.7277 43.125L24.4215 39.8392L25.0657 38.7989L30.3719 42.0847L31.6027 40.097L32.4687 40.6333Z" fill="#444444"/>
<path d="M28.6391 47.4892L28.1938 48.6362L25.5491 47.6097L24.9852 49.0627C24.6174 50.0101 24.1498 50.667 23.5823 51.0333C23.0174 51.4056 22.4121 51.4664 21.7663 51.2157C21.2013 50.9964 20.8002 50.5939 20.5632 50.0081C20.3287 49.4283 20.3937 48.6689 20.7581 47.73L21.8712 44.8622L28.6391 47.4892ZM22.3692 46.3754L21.9017 47.5799C21.6197 48.3064 21.5077 48.8593 21.5658 49.2387C21.6238 49.6181 21.8419 49.8812 22.22 50.0279C22.5132 50.1417 22.819 50.1284 23.1374 49.9881C23.4559 49.8477 23.7677 49.3845 24.0727 48.5986L24.5996 47.2412L22.3692 46.3754Z" fill="#444444"/>
<path d="M18.798 64.9763C18.4261 64.5078 18.1676 64.0591 18.0224 63.6302C17.8771 63.2058 17.8126 62.7522 17.8288 62.2694C17.8556 61.4723 18.0698 60.8662 18.4713 60.4511C18.8774 60.0361 19.3834 59.8388 19.9891 59.8592C20.3444 59.8711 20.6651 59.9617 20.9513 60.1309C21.2418 60.3048 21.4715 60.5246 21.6404 60.7902C21.8092 61.0603 21.9336 61.3609 22.0137 61.6919C22.0693 61.9355 22.1185 62.3019 22.1614 62.7913C22.2464 63.7882 22.363 64.5239 22.5112 64.9986C22.6796 65.0088 22.7865 65.0147 22.8321 65.0162C23.3331 65.0331 23.69 64.9288 23.9028 64.7034C24.1912 64.3985 24.3458 63.9363 24.3666 63.3168C24.3861 62.7384 24.298 62.3068 24.1024 62.0221C23.9112 61.742 23.5604 61.5273 23.0502 61.3779L23.2546 60.181C23.7656 60.3076 24.174 60.5015 24.4799 60.7626C24.7903 61.0238 25.0218 61.3941 25.1744 61.8734C25.3315 62.3529 25.3996 62.9047 25.3786 63.5287C25.3578 64.1481 25.268 64.649 25.1092 65.0312C24.9505 65.4135 24.7564 65.6919 24.5271 65.8666C24.3024 66.0415 24.0202 66.1597 23.6808 66.2212C23.4699 66.2552 23.0911 66.2629 22.5446 66.2446L20.9049 66.1894C19.7616 66.151 19.0366 66.1517 18.7297 66.1915C18.4273 66.2361 18.1345 66.3311 17.8515 66.4766L17.8947 65.1922C18.154 65.0732 18.4551 65.0013 18.798 64.9763ZM21.5479 64.9662C21.3807 64.5137 21.2484 63.839 21.1508 62.942C21.095 62.4339 21.025 62.0736 20.941 61.861C20.8569 61.6485 20.728 61.4823 20.5542 61.3624C20.3849 61.2427 20.1933 61.1793 19.9792 61.1721C19.6513 61.1611 19.3738 61.2748 19.1469 61.5135C18.9199 61.7566 18.7983 62.1173 18.7822 62.5956C18.7663 63.0692 18.8546 63.494 19.0472 63.8698C19.2443 64.2458 19.5199 64.5264 19.8739 64.7116C20.1473 64.853 20.555 64.9328 21.097 64.951L21.5479 64.9662Z" fill="#444444"/>
<path d="M25.4737 68.7308L25.6737 69.9449L22.6924 70.436L23.247 73.8018L26.2283 73.3106L26.4283 74.5247L19.2651 75.7049L19.0651 74.4908L22.242 73.9674L21.6874 70.6016L18.5105 71.125L18.3105 69.9109L25.4737 68.7308Z" fill="#444444"/>
<path d="M27.144 76.3017L27.5557 77.4612L24.5988 78.511C24.7299 78.8803 24.8922 79.1128 25.0858 79.2085C25.2809 79.3085 25.7709 79.3812 26.556 79.4265C27.1779 79.462 27.5999 79.5201 27.822 79.6009C28.0441 79.6816 28.218 79.8036 28.3437 79.967C28.4694 80.1303 28.6046 80.416 28.7495 80.824L28.8318 81.0559L27.872 81.3966L27.7641 81.0722C27.6558 80.7673 27.5413 80.5879 27.4207 80.534C27.2942 80.4774 26.9641 80.4398 26.4304 80.4214C25.9212 80.4038 25.5548 80.3526 25.3312 80.2675C25.1076 80.1825 24.8708 80.0127 24.6208 79.7581C24.6645 80.3035 24.3745 80.9578 23.7508 81.7208L22.0819 83.7423L21.629 82.4668L23.3094 80.4775C23.6446 80.0732 23.8452 79.7529 23.9113 79.5167C23.9816 79.2789 23.9703 79.0291 23.8773 78.7671L20.7142 79.89L20.3026 78.7305L27.144 76.3017Z" fill="#444444"/>
<path d="M27.8987 89.2508L28.4003 90.4297C27.6571 90.6287 26.972 90.5965 26.3452 90.333C25.7184 90.0695 25.1936 89.5731 24.7708 88.8437C24.2383 87.925 24.0974 87.0322 24.3481 86.1652C24.605 85.2999 25.244 84.5712 26.2652 83.9793C27.3219 83.3668 28.2997 83.1634 29.1986 83.3693C30.0975 83.5751 30.7984 84.1118 31.3012 84.9792C31.788 85.819 31.8998 86.6707 31.6367 87.5344C31.3735 88.3981 30.7235 89.1305 29.6865 89.7315C29.6234 89.7681 29.5277 89.821 29.3992 89.8902L26.6841 85.2062C26.0169 85.6455 25.6017 86.147 25.4385 86.7104C25.2752 87.2739 25.3455 87.8178 25.6495 88.3422C25.8758 88.7325 26.1714 89.0063 26.5364 89.1634C26.9014 89.3206 27.3555 89.3497 27.8987 89.2508ZM27.5936 84.7579L29.6266 88.265C30.1275 87.9115 30.446 87.5477 30.5822 87.1738C30.7957 86.597 30.7459 86.0386 30.4328 85.4984C30.1494 85.0095 29.7469 84.6923 29.2254 84.5469C28.7062 84.4054 28.1622 84.4757 27.5936 84.7579Z" fill="#444444"/>
<path d="M33.7627 88.9145L37.6344 93.3657L36.8659 94.0342L35.3316 92.2702L30.6225 96.3662L29.8194 95.443L34.5285 91.347L32.9942 89.583L33.7627 88.9145Z" fill="#444444"/>
<path d="M32.8694 102.418L33.4866 101.432C33.6505 101.658 33.8106 101.833 33.9669 101.959C34.18 102.13 34.379 102.232 34.564 102.263C34.749 102.295 34.9337 102.28 35.1182 102.218C35.2557 102.17 35.5447 102.011 35.9851 101.739C36.0457 101.7 36.137 101.645 36.2588 101.573L38.6685 94.1783L39.7022 95.0092L38.2457 99.2324C38.0644 99.7708 37.85 100.318 37.6024 100.873C38.0666 100.521 38.5435 100.197 39.0331 99.9004L42.8937 97.5746L43.8527 98.3455L37.0748 102.37C36.3442 102.806 35.8208 103.089 35.5045 103.221C35.0799 103.4 34.6989 103.474 34.3616 103.443C34.0215 103.415 33.6987 103.278 33.3932 103.032C33.2085 102.884 33.0339 102.679 32.8694 102.418Z" fill="#444444"/>
<path d="M51.0156 101.745L55.7731 103.464L53.6495 109.34L54.3889 109.607L53.3457 112.494L52.3942 112.15L53.0935 110.215L47.7189 108.272L47.0195 110.208L46.068 109.864L47.1112 106.977L47.722 107.198C48.936 106.386 50.0338 104.569 51.0156 101.745ZM51.6338 103.051C50.7473 105.236 49.812 106.751 48.8278 107.597L52.4987 108.924L54.2761 104.006L51.6338 103.051Z" fill="#444444"/>
<path d="M58.596 103.911L64.252 104.728L63.2136 111.913L62.0025 111.738L62.8953 105.561L59.6681 105.095L59.1508 108.674C59.0302 109.508 58.9236 110.055 58.831 110.313C58.7384 110.571 58.556 110.782 58.2838 110.945C58.0115 111.109 57.6454 111.157 57.1853 111.09C56.9012 111.049 56.5768 110.984 56.2121 110.895L56.3588 109.88L56.8933 109.957C57.1459 109.993 57.3299 109.995 57.4453 109.961C57.5614 109.922 57.6456 109.849 57.698 109.742C57.7504 109.634 57.8215 109.269 57.9115 108.647L58.596 103.911Z" fill="#444444"/>
<path d="M71.9429 104.273L72.3301 111.523L71.1082 111.588L70.9572 108.762L70.2473 108.8C69.815 108.823 69.4949 108.897 69.2871 109.022C69.0836 109.143 68.7955 109.516 68.4228 110.143L67.4357 111.784L65.9135 111.865L67.1335 109.842C67.5066 109.224 67.8914 108.866 68.2877 108.767C67.5818 108.709 67.0472 108.485 66.6841 108.093C66.3254 107.702 66.1319 107.24 66.1034 106.707C66.0699 106.079 66.2634 105.558 66.6839 105.143C67.109 104.728 67.7425 104.498 68.5844 104.453L71.9429 104.273ZM70.7753 105.356L69.0278 105.449C68.2951 105.488 67.8279 105.627 67.6262 105.866C67.429 106.105 67.3385 106.377 67.3548 106.681C67.3779 107.114 67.5497 107.424 67.8701 107.612C68.1948 107.796 68.753 107.866 69.5449 107.824L70.9033 107.752L70.7753 105.356Z" fill="#444444"/>
<path d="M80.3577 105.808C79.8465 104.565 79.8136 103.502 80.2588 102.619C80.6318 101.884 81.2335 101.346 82.0639 101.005C82.987 100.625 83.8663 100.619 84.7016 100.985C85.5353 101.347 86.1713 102.061 86.6097 103.127C86.9649 103.992 87.114 104.726 87.0571 105.331C87.0027 105.93 86.7832 106.468 86.3984 106.947C86.0179 107.423 85.5346 107.782 84.9487 108.023C84.0088 108.409 83.1241 108.421 82.2946 108.057C81.4694 107.692 80.8237 106.942 80.3577 105.808ZM81.5273 105.327C81.8808 106.187 82.3335 106.755 82.8853 107.031C83.4355 107.302 83.9951 107.321 84.5641 107.087C85.1289 106.855 85.5105 106.447 85.7089 105.863C85.9074 105.279 85.8255 104.546 85.4634 103.665C85.1221 102.835 84.6742 102.285 84.1199 102.015C83.568 101.739 83.0117 101.717 82.4511 101.947C81.8821 102.181 81.4975 102.588 81.2974 103.168C81.0972 103.748 81.1739 104.468 81.5273 105.327Z" fill="#444444"/>
<path d="M86.8808 98.7331L91.6507 95.5607L95.6711 101.606L94.6465 102.287L91.1902 97.0903L88.4694 98.8998L91.9257 104.097L90.9012 104.778L86.8808 98.7331Z" fill="#444444"/>
<path d="M100.087 94.124L101.098 93.3377C101.481 94.0053 101.625 94.6758 101.53 95.3492C101.435 96.0225 101.09 96.6568 100.493 97.252C99.7405 98.0017 98.9133 98.3661 98.0111 98.3453C97.1088 98.3181 96.241 97.8865 95.4077 97.0506C94.5455 96.1856 94.099 95.2922 94.0682 94.3705C94.0375 93.4489 94.3771 92.6341 95.0872 91.9263C95.7747 91.241 96.5696 90.9152 97.4718 90.9488C98.3741 90.9825 99.2483 91.4238 100.094 92.2726C100.146 92.3243 100.222 92.4034 100.321 92.5099L96.4868 96.3321C97.0821 96.8647 97.673 97.138 98.2595 97.1518C98.846 97.1656 99.3538 96.9586 99.7831 96.5307C100.103 96.2122 100.292 95.8564 100.35 95.4633C100.409 95.0703 100.321 94.6238 100.087 94.124ZM95.821 95.5673L98.692 92.7054C98.2221 92.3115 97.789 92.0966 97.3927 92.0605C96.7805 92.0015 96.2533 92.1924 95.8112 92.6332C95.4109 93.0321 95.2072 93.5023 95.1999 94.0436C95.1958 94.5818 95.4028 95.0897 95.821 95.5673Z" fill="#444444"/>
<path d="M98.632 87.9807L99.3296 86.9671L101.914 88.746C102.137 88.4232 102.23 88.1553 102.194 87.9424C102.16 87.7257 101.931 87.2862 101.508 86.6239C101.172 86.0994 100.971 85.7235 100.906 85.4962C100.841 85.269 100.838 85.0566 100.897 84.859C100.955 84.6614 101.107 84.3843 101.353 84.0276L101.492 83.8249L102.331 84.4024L102.132 84.6801C101.948 84.9466 101.87 85.1446 101.897 85.2739C101.926 85.4096 102.089 85.6989 102.387 86.142C102.672 86.5646 102.845 86.8914 102.907 87.1224C102.97 87.3534 102.971 87.6448 102.911 87.9966C103.328 87.6412 104.027 87.4923 105.011 87.5498L107.628 87.7156L106.86 88.8306L104.263 88.6367C103.739 88.6024 103.362 88.6277 103.132 88.7128C102.898 88.7953 102.703 88.9511 102.545 89.1801L105.31 91.083L104.612 92.0966L98.632 87.9807Z" fill="#444444"/>
<path d="M111.262 86.5311L110.156 86.1724C110.334 85.9586 110.466 85.7606 110.55 85.5785C110.664 85.3301 110.714 85.1123 110.7 84.9252C110.685 84.738 110.626 84.5626 110.521 84.3987C110.441 84.2769 110.216 84.0354 109.846 83.6743C109.793 83.625 109.717 83.5499 109.618 83.4492L101.859 82.911L102.413 81.7063L106.864 82.0915C107.43 82.1364 108.013 82.2113 108.612 82.3163C108.158 81.9518 107.727 81.568 107.32 81.1652L104.125 77.9866L104.64 76.8688L110.192 82.464C110.792 83.0665 111.195 83.5052 111.4 83.78C111.677 84.1482 111.841 84.4998 111.893 84.8346C111.948 85.1713 111.894 85.5176 111.731 85.8737C111.631 86.0889 111.475 86.3081 111.262 86.5311Z" fill="#444444"/>
<path d="M104.838 75.5791L105.139 74.386L108.069 75.125L108.903 71.8175L105.974 71.0785L106.275 69.8854L113.314 71.6611L113.013 72.8542L109.891 72.0666L109.057 75.3742L112.179 76.1617L111.878 77.3548L104.838 75.5791Z" fill="#444444"/>
<path d="M111.225 63.5399L111.458 62.3422C112.282 62.5266 112.913 62.9065 113.352 63.4821C113.786 64.0529 113.979 64.7339 113.929 65.5253C113.866 66.5169 113.493 67.2947 112.809 67.859C112.121 68.4184 111.172 68.66 109.962 68.5838C109.18 68.5345 108.503 68.3617 107.933 68.0655C107.363 67.7693 106.949 67.3482 106.691 66.8023C106.429 66.2515 106.317 65.6646 106.356 65.0415C106.406 64.2546 106.647 63.6237 107.078 63.1486C107.506 62.6732 108.09 62.388 108.831 62.2932L108.94 63.4987C108.446 63.5818 108.067 63.7611 107.803 64.0367C107.54 64.3078 107.395 64.648 107.369 65.0573C107.33 65.6759 107.521 66.1925 107.943 66.6072C108.36 67.0216 109.048 67.259 110.008 67.3195C110.981 67.3808 111.7 67.2389 112.165 66.8937C112.629 66.5485 112.88 66.0758 112.918 65.4754C112.949 64.9933 112.826 64.5814 112.551 64.2399C112.276 63.8983 111.834 63.665 111.225 63.5399Z" fill="#444444"/>
<path d="M106.496 61.414L105.819 55.5535L106.831 55.4367L107.099 57.7591L113.299 57.0434L113.44 58.2589L107.24 58.9747L107.508 61.2972L106.496 61.414Z" fill="#444444"/>
<path d="M105.237 53.6351L104.401 50.9242C104.195 50.2579 104.1 49.7461 104.113 49.389C104.122 49.0288 104.238 48.6876 104.463 48.3655C104.687 48.039 105.005 47.8119 105.419 47.6844C105.75 47.5823 106.061 47.5627 106.352 47.6255C106.638 47.6853 106.906 47.8268 107.156 48.0502C107.164 47.69 107.285 47.3568 107.52 47.0508C107.749 46.7417 108.068 46.524 108.478 46.3978C109.149 46.2386 109.709 46.3233 110.158 46.6521C110.608 46.9808 110.958 47.5524 111.209 48.3667L112.174 51.4957L105.237 53.6351ZM107.794 51.5588L107.408 50.3046C107.253 49.8038 107.121 49.4678 107.011 49.2967C106.901 49.1255 106.745 48.9901 106.542 48.8904C106.335 48.792 106.121 48.777 105.899 48.8455C105.533 48.9584 105.319 49.1676 105.255 49.4732C105.191 49.7744 105.255 50.2386 105.449 50.8657L105.848 52.1591L107.794 51.5588ZM110.845 50.618L110.367 49.0699C110.162 48.4036 109.945 47.9698 109.716 47.7686C109.482 47.5687 109.174 47.5207 108.791 47.6244C108.569 47.6929 108.387 47.8279 108.244 48.0294C108.097 48.2322 108.035 48.4564 108.058 48.7019C108.077 48.9489 108.165 49.3271 108.322 49.8366L108.761 51.2607L110.845 50.618Z" fill="#444444"/>
<path d="M105.944 39.1821C106.502 39.3986 106.952 39.6552 107.294 39.9521C107.634 40.2449 107.918 40.6037 108.148 41.0286C108.528 41.73 108.649 42.3612 108.513 42.9224C108.372 43.4856 108.035 43.9115 107.502 44.2C107.189 44.3692 106.867 44.453 106.534 44.4516C106.195 44.4483 105.886 44.3747 105.606 44.2308C105.324 44.0829 105.065 43.8864 104.829 43.6412C104.658 43.4592 104.43 43.1678 104.146 42.7671C103.569 41.9498 103.096 41.3737 102.729 41.039C102.578 41.1152 102.483 41.1642 102.443 41.1859C102.002 41.4245 101.747 41.6948 101.677 41.9968C101.582 42.4056 101.682 42.8826 101.977 43.4277C102.253 43.9367 102.547 44.2647 102.859 44.4116C103.166 44.5566 103.577 44.5647 104.093 44.4359L104.521 45.5721C104.016 45.721 103.566 45.76 103.17 45.6892C102.77 45.6206 102.383 45.418 102.009 45.0815C101.631 44.747 101.294 44.3053 100.997 43.7562C100.702 43.2111 100.526 42.7335 100.47 42.3234C100.414 41.9133 100.441 41.575 100.55 41.3084C100.656 41.0439 100.84 40.7994 101.102 40.5748C101.266 40.4389 101.589 40.2409 102.07 39.9806L103.513 39.1997C104.519 38.6553 105.145 38.2884 105.389 38.099C105.628 37.9077 105.832 37.6778 106.003 37.4092L106.615 38.5395C106.451 38.7732 106.228 38.9874 105.944 39.1821ZM103.576 40.5802C103.949 40.8863 104.404 41.4017 104.942 42.1265C105.247 42.5367 105.489 42.8123 105.669 42.9533C105.849 43.0943 106.044 43.1726 106.255 43.1882C106.461 43.206 106.659 43.1639 106.847 43.062C107.136 42.9058 107.317 42.6674 107.393 42.3469C107.466 42.0223 107.388 41.6496 107.161 41.2288C106.935 40.812 106.644 40.49 106.288 40.263C105.928 40.0381 105.549 39.9352 105.15 39.9542C104.842 39.9703 104.45 40.1074 103.973 40.3655L103.576 40.5802Z" fill="#444444"/>
</g>
<rect x="48.6089" y="45.9888" width="33.1957" height="37.3804" rx="0.798943" stroke="#444444" stroke-width="1.59789"/>
<line x1="54.9948" y1="54.975" x2="75.4191" y2="54.975" stroke="#444444" stroke-width="1.59789" stroke-linecap="round"/>
<line x1="54.9948" y1="63.88" x2="75.4191" y2="63.88" stroke="#444444" stroke-width="1.59789" stroke-linecap="round"/>
<line x1="54.9948" y1="72.7851" x2="67.9369" y2="72.7851" stroke="#444444" stroke-width="1.59789" stroke-linecap="round"/>
<path d="M71.6922 71.4798L73.4559 74.4866C73.7569 74.9999 74.4933 75.0157 74.8161 74.5159L77.8687 69.7901" stroke="#444444" stroke-width="1.59789" stroke-linecap="round"/>
<defs>
<filter id="filter0_f_267_93" x="-23.6732" y="-24.2011" width="177.76" height="177.76" filterUnits="userSpaceOnUse" color-interpolation-filters="sRGB">
<feFlood flood-opacity="0" result="BackgroundImageFix"/>
<feBlend mode="normal" in="SourceGraphic" in2="BackgroundImageFix" result="shape"/>
<feGaussianBlur stdDeviation="18.7752" result="effect1_foregroundBlur_267_93"/>
</filter>
<filter id="filter1_d_267_93" x="-54.3125" y="-46.2072" width="256.431" height="256.701" filterUnits="userSpaceOnUse" color-interpolation-filters="sRGB">
<feFlood flood-opacity="0" result="BackgroundImageFix"/>
<feColorMatrix in="SourceAlpha" type="matrix" values="0 0 0 0 0 0 0 0 0 0 0 0 0 0 0 0 0 0 127 0" result="hardAlpha"/>
<feOffset dx="8" dy="18"/>
<feGaussianBlur stdDeviation="40"/>
<feComposite in2="hardAlpha" operator="out"/>
<feColorMatrix type="matrix" values="0 0 0 0 0 0 0 0 0 0 0 0 0 0 0 0 0 0 0.12 0"/>
<feBlend mode="normal" in2="BackgroundImageFix" result="effect1_dropShadow_267_93"/>
<feBlend mode="normal" in="SourceGraphic" in2="effect1_dropShadow_267_93" result="shape"/>
</filter>
</defs>
</svg>
