<svg width="130" height="130" viewBox="0 0 130 130" fill="none" xmlns="http://www.w3.org/2000/svg">
<g filter="url(#filter0_f_4_42)">
<circle cx="64.7933" cy="64.679" r="51.3298" fill="#52749A" fill-opacity="0.2"/>
</g>
<g filter="url(#filter1_d_4_42)">
<path d="M80.9192 22.039L80.5837 22.9425C80.0951 22.7659 79.7568 22.6622 79.569 22.6313C79.3768 22.5989 79.17 22.6387 78.9485 22.7509C78.7269 22.8631 78.5686 23.0473 78.4734 23.3037C78.3576 23.6155 78.3702 23.9022 78.5113 24.1636C78.6466 24.4278 78.8787 24.6209 79.2076 24.7431C79.857 24.9843 80.454 24.7709 80.9986 24.1029L82.0278 24.6893C81.2116 25.8398 80.1499 26.1723 78.8426 25.6868C78.1163 25.417 77.6219 25.0074 77.3593 24.4577C77.0925 23.9065 77.0614 23.3554 77.2661 22.8042C77.4723 22.2489 77.9057 21.9066 78.5661 21.7776C78.2926 21.467 78.1235 21.1368 78.0589 20.7871C77.9928 20.4417 78.0319 20.0746 78.1763 19.6858C78.4032 19.0749 78.8094 18.6618 79.3949 18.4466C79.9804 18.2314 80.6726 18.2721 81.4715 18.5688C83.0223 19.1448 83.6653 20.1687 83.4007 21.6406L82.232 21.4691C82.2956 20.9969 82.2222 20.5856 82.012 20.2353C81.7976 19.8834 81.4959 19.6353 81.1072 19.4909C80.7184 19.3465 80.3554 19.3357 80.0182 19.4583C79.675 19.5837 79.44 19.8173 79.3131 20.1591C79.2147 20.4239 79.2102 20.6848 79.2996 20.9416C79.3889 21.1984 79.5167 21.3844 79.683 21.4996C79.8477 21.6191 80.1714 21.7685 80.6541 21.9478C80.6926 21.9621 80.7809 21.9925 80.9192 22.039Z" fill="#444444"/>
<path d="M70.5532 17.0896C71.0664 16.7823 71.5452 16.5849 71.9894 16.4972C72.4292 16.4087 72.8874 16.4042 73.3639 16.4835C74.1506 16.6146 74.7234 16.9063 75.0823 17.3588C75.4404 17.8158 75.5697 18.3433 75.4701 18.9411C75.4117 19.2918 75.2799 19.5978 75.0747 19.8593C74.8642 20.1246 74.6162 20.3235 74.3307 20.4562C74.0408 20.5881 73.7265 20.672 73.3879 20.708C73.1391 20.7312 72.7694 20.732 72.2787 20.7103C71.2792 20.664 70.5345 20.6832 70.0445 20.7679C70.0123 20.9335 69.9925 21.0387 69.985 21.0837C69.9026 21.5782 69.9592 21.9457 70.1548 22.1861C70.4193 22.512 70.8572 22.7259 71.4686 22.8277C72.0395 22.9228 72.4789 22.892 72.7868 22.7354C73.0895 22.5826 73.3483 22.263 73.5633 21.7767L74.7231 22.1362C74.5306 22.6262 74.2849 23.0057 73.986 23.2747C73.6864 23.5482 73.2889 23.7292 72.7937 23.8177C72.2977 23.9106 71.7418 23.9058 71.1259 23.8032C70.5146 23.7014 70.0298 23.5467 69.6717 23.3392C69.3135 23.1317 69.0629 22.9029 68.9198 22.6526C68.7759 22.4069 68.6957 22.1117 68.6792 21.7671C68.6732 21.5536 68.7151 21.1771 68.8049 20.6376L69.0745 19.0193C69.2624 17.891 69.3568 17.1721 69.3575 16.8627C69.353 16.557 69.2971 16.2543 69.1899 15.9546L70.4576 16.1658C70.5416 16.4385 70.5734 16.7464 70.5532 17.0896ZM70.2029 19.8171C70.6734 19.7107 71.3597 19.6679 72.2617 19.6888C72.7727 19.7 73.139 19.6778 73.3608 19.6224C73.5826 19.5669 73.7642 19.4609 73.9058 19.3043C74.0467 19.1522 74.1347 18.9705 74.1699 18.7592C74.2238 18.4355 74.1473 18.1456 73.9405 17.8894C73.7292 17.6324 73.3876 17.4646 72.9155 17.386C72.448 17.3082 72.0154 17.34 71.6175 17.4817C71.219 17.6278 70.9047 17.8642 70.6747 18.1909C70.4987 18.4434 70.3661 18.8371 70.277 19.3721L70.2029 19.8171Z" fill="#444444"/>
<path d="M65.9563 23.2157L60.2307 23.3981L59.9995 16.142L61.2293 16.1028L61.4281 22.3409L64.694 22.2368L64.4952 15.9988L65.7251 15.9596L65.9563 23.2157Z" fill="#444444"/>
<path d="M57.8833 20.2011C58.1882 21.5105 58.05 22.5651 57.4688 23.3648C56.9827 24.0302 56.3024 24.4646 55.428 24.6682C54.456 24.8945 53.5871 24.7599 52.8213 24.2644C52.0566 23.7733 51.5435 22.9663 51.282 21.8434C51.0702 20.9335 51.0409 20.1846 51.1941 19.5968C51.3439 19.0144 51.6472 18.518 52.1037 18.1076C52.5559 17.6981 53.0904 17.4216 53.7074 17.278C54.6972 17.0475 55.5722 17.1783 56.3325 17.6704C57.0884 18.1636 57.6053 19.0071 57.8833 20.2011ZM56.6516 20.4879C56.4408 19.5824 56.0852 18.9493 55.5847 18.5885C55.0853 18.2322 54.536 18.1238 53.9368 18.2633C53.342 18.4018 52.8998 18.7434 52.6102 19.2881C52.3206 19.8328 52.2838 20.569 52.4998 21.4967C52.7033 22.3711 53.0571 22.9859 53.5609 23.3412C54.0613 23.702 54.6067 23.8136 55.1971 23.6762C55.7963 23.5367 56.2412 23.1968 56.5319 22.6565C56.8225 22.1162 56.8624 21.3934 56.6516 20.4879Z" fill="#444444"/>
<path d="M49.7767 26.3691L44.5869 28.7618L41.5473 22.169L42.6585 21.6567L45.2717 27.3245L48.2329 25.9593L46.7188 22.6753C46.3658 21.9096 46.1578 21.3933 46.0949 21.1262C46.032 20.8591 46.0703 20.583 46.2098 20.2979C46.3494 20.0127 46.6302 19.7729 47.0523 19.5782C47.3131 19.458 47.6207 19.3362 47.9754 19.2129L48.4047 20.1441L47.9143 20.3702C47.6825 20.477 47.5275 20.5761 47.4491 20.6674C47.3727 20.7629 47.3418 20.87 47.3564 20.9887C47.371 21.1075 47.5099 21.4524 47.7732 22.0235L49.7767 26.3691Z" fill="#444444"/>
<path d="M42.9989 29.9718L42.0038 30.6957L40.2264 28.2523L37.4679 30.2589L39.2453 32.7023L38.2503 33.4261L33.9797 27.5553L34.9747 26.8315L36.8687 29.4352L39.6272 27.4286L37.7332 24.8249L38.7282 24.101L42.9989 29.9718Z" fill="#444444"/>
<path d="M36.9855 34.815L36.1513 35.7195L32.081 31.9655L33.8387 38.227L32.9396 39.2019L27.603 34.28L28.4372 33.3755L32.4824 37.1063L30.7498 30.868L31.6489 29.8931L36.9855 34.815Z" fill="#444444"/>
<path d="M32.0551 40.6332L28.9492 45.6489L28.0833 45.1126L29.3141 43.125L24.0078 39.8392L24.6521 38.7988L29.9583 42.0847L31.1891 40.097L32.0551 40.6332Z" fill="#444444"/>
<path d="M28.2254 47.4892L27.7802 48.6362L25.1355 47.6097L24.5715 49.0627C24.2038 50.0101 23.7362 50.667 23.1687 51.0333C22.6038 51.4056 21.9984 51.4664 21.3527 51.2157C20.7876 50.9964 20.3866 50.5939 20.1495 50.0081C19.9151 49.4283 19.9801 48.6689 20.3445 47.73L21.4576 44.8622L28.2254 47.4892ZM21.9555 46.3754L21.488 47.5799C21.206 48.3064 21.0941 48.8593 21.1521 49.2387C21.2102 49.6181 21.4283 49.8812 21.8064 50.0279C22.0995 50.1417 22.4053 50.1284 22.7238 49.9881C23.0423 49.8477 23.354 49.3845 23.6591 48.5985L24.186 47.2412L21.9555 46.3754Z" fill="#444444"/>
<path d="M18.3844 64.9763C18.0125 64.5078 17.754 64.0591 17.6088 63.6302C17.4635 63.2058 17.399 62.7522 17.4152 62.2694C17.442 61.4723 17.6562 60.8662 18.0577 60.4511C18.4638 60.0361 18.9698 59.8388 19.5756 59.8592C19.9308 59.8711 20.2515 59.9617 20.5377 60.1309C20.8282 60.3048 21.0579 60.5246 21.2268 60.7902C21.3956 61.0603 21.52 61.3609 21.6001 61.6919C21.6557 61.9355 21.705 62.3019 21.7478 62.7912C21.8328 63.7882 21.9494 64.5239 22.0976 64.9986C22.266 65.0088 22.373 65.0147 22.4185 65.0162C22.9195 65.0331 23.2764 64.9288 23.4892 64.7034C23.7776 64.3984 23.9322 63.9363 23.953 63.3168C23.9725 62.7384 23.8844 62.3068 23.6888 62.0221C23.4976 61.742 23.1468 61.5273 22.6366 61.3779L22.841 60.181C23.352 60.3076 23.7604 60.5015 24.0663 60.7625C24.3767 61.0238 24.6082 61.3941 24.7608 61.8734C24.9179 62.3529 24.986 62.9047 24.965 63.5287C24.9442 64.1481 24.8544 64.649 24.6957 65.0312C24.5369 65.4135 24.3428 65.6919 24.1135 65.8666C23.8888 66.0415 23.6067 66.1596 23.2672 66.2212C23.0563 66.2551 22.6775 66.2629 22.131 66.2445L20.4913 66.1894C19.348 66.151 18.623 66.1517 18.3161 66.1915C18.0137 66.2361 17.7209 66.3311 17.4379 66.4766L17.4811 65.1922C17.7404 65.0732 18.0415 65.0013 18.3844 64.9763ZM21.1343 64.9662C20.9671 64.5137 20.8348 63.839 20.7373 62.9419C20.6814 62.4339 20.6114 62.0736 20.5274 61.861C20.4433 61.6485 20.3144 61.4822 20.1406 61.3624C19.9713 61.2427 19.7797 61.1793 19.5656 61.1721C19.2377 61.161 18.9602 61.2748 18.7334 61.5134C18.5063 61.7566 18.3847 62.1173 18.3687 62.5955C18.3527 63.0692 18.441 63.494 18.6336 63.8698C18.8307 64.2458 19.1063 64.5264 19.4603 64.7115C19.7337 64.853 20.1414 64.9328 20.6834 64.951L21.1343 64.9662Z" fill="#444444"/>
<path d="M25.0601 68.7307L25.2601 69.9448L22.2788 70.436L22.8334 73.8018L25.8147 73.3106L26.0147 74.5247L18.8515 75.7049L18.6515 74.4908L21.8284 73.9674L21.2738 70.6016L18.0969 71.125L17.8969 69.9109L25.0601 68.7307Z" fill="#444444"/>
<path d="M26.7304 76.3017L27.1421 77.4612L24.1852 78.511C24.3163 78.8803 24.4786 79.1128 24.6722 79.2085C24.8673 79.3085 25.3573 79.3812 26.1423 79.4265C26.7643 79.462 27.1863 79.5202 27.4084 79.6009C27.6305 79.6816 27.8044 79.8037 27.9301 79.967C28.0558 80.1303 28.191 80.416 28.3359 80.824L28.4182 81.0559L27.4583 81.3966L27.3504 81.0723C27.2422 80.7673 27.1277 80.5879 27.007 80.5341C26.8805 80.4774 26.5504 80.4399 26.0168 80.4214C25.5076 80.4039 25.1412 80.3526 24.9176 80.2675C24.694 80.1825 24.4572 80.0127 24.2072 79.7581C24.2509 80.3035 23.9609 80.9578 23.3371 81.7209L21.6683 83.7424L21.2154 82.4668L22.8957 80.4775C23.231 80.0732 23.4316 79.7529 23.4976 79.5167C23.568 79.279 23.5567 79.0291 23.4637 78.7671L20.3006 79.89L19.889 78.7305L26.7304 76.3017Z" fill="#444444"/>
<path d="M27.4851 89.2508L27.9867 90.4297C27.2435 90.6287 26.5585 90.5965 25.9316 90.333C25.3048 90.0695 24.78 89.573 24.3572 88.8436C23.8247 87.925 23.6838 87.0321 23.9345 86.1652C24.1914 85.2998 24.8305 84.5712 25.8516 83.9793C26.9083 83.3667 27.8861 83.1634 28.785 83.3693C29.684 83.5751 30.3848 84.1118 30.8876 84.9792C31.3744 85.819 31.4863 86.6707 31.2231 87.5344C30.9599 88.3981 30.3099 89.1304 29.2729 89.7315C29.2098 89.7681 29.1141 89.821 28.9856 89.8901L26.2705 85.2061C25.6033 85.6455 25.1881 86.1469 25.0249 86.7104C24.8616 87.2739 24.9319 87.8178 25.2359 88.3422C25.4622 88.7325 25.7578 89.0062 26.1228 89.1634C26.4878 89.3205 26.9419 89.3497 27.4851 89.2508ZM27.18 84.7579L29.213 88.265C29.7139 87.9114 30.0324 87.5477 30.1686 87.1738C30.3821 86.597 30.3323 86.0385 30.0192 85.4984C29.7358 85.0095 29.3333 84.6923 28.8118 84.5468C28.2926 84.4054 27.7487 84.4757 27.18 84.7579Z" fill="#444444"/>
<path d="M33.3491 88.9145L37.2208 93.3657L36.4523 94.0342L34.918 92.2702L30.2089 96.3662L29.4059 95.4429L34.1149 91.3469L32.5806 89.583L33.3491 88.9145Z" fill="#444444"/>
<path d="M32.4558 102.418L33.073 101.432C33.2369 101.658 33.397 101.833 33.5533 101.959C33.7664 102.13 33.9654 102.232 34.1504 102.263C34.3354 102.295 34.5201 102.28 34.7046 102.218C34.8421 102.17 35.1311 102.011 35.5715 101.739C35.6321 101.7 35.7234 101.645 35.8452 101.573L38.2549 94.1783L39.2886 95.0092L37.8321 99.2324C37.6508 99.7708 37.4364 100.318 37.1888 100.873C37.653 100.521 38.1299 100.197 38.6195 99.9004L42.48 97.5746L43.4391 98.3455L36.6611 102.369C35.9306 102.805 35.4072 103.089 35.0909 103.221C34.6663 103.4 34.2853 103.474 33.948 103.443C33.6079 103.415 33.2851 103.278 32.9796 103.032C32.7949 102.884 32.6203 102.679 32.4558 102.418Z" fill="#444444"/>
<path d="M50.602 101.745L55.3595 103.464L53.2359 109.34L53.9753 109.607L52.9321 112.494L51.9806 112.15L52.6799 110.215L47.3053 108.272L46.6059 110.208L45.6544 109.864L46.6976 106.977L47.3084 107.198C48.5224 106.386 49.6202 104.569 50.602 101.745ZM51.2202 103.051C50.3337 105.236 49.3984 106.751 48.4142 107.597L52.0851 108.924L53.8625 104.006L51.2202 103.051Z" fill="#444444"/>
<path d="M58.1824 103.911L63.8385 104.728L62.8 111.913L61.589 111.738L62.4817 105.561L59.2545 105.095L58.7372 108.674C58.6166 109.508 58.51 110.055 58.4175 110.313C58.3249 110.571 58.1425 110.782 57.8702 110.945C57.598 111.109 57.2318 111.157 56.7717 111.09C56.4876 111.049 56.1632 110.984 55.7986 110.895L55.9452 109.88L56.4797 109.957C56.7323 109.993 56.9163 109.995 57.0317 109.961C57.1478 109.922 57.232 109.849 57.2844 109.742C57.3368 109.634 57.408 109.269 57.4979 108.647L58.1824 103.911Z" fill="#444444"/>
<path d="M71.5292 104.273L71.9165 111.523L70.6946 111.588L70.5436 108.762L69.8337 108.8C69.4014 108.823 69.0813 108.897 68.8735 109.022C68.67 109.143 68.3819 109.516 68.0092 110.143L67.0221 111.784L65.4999 111.865L66.7199 109.842C67.093 109.225 67.4778 108.866 67.8741 108.767C67.1682 108.709 66.6336 108.485 66.2705 108.093C65.9118 107.702 65.7183 107.24 65.6898 106.707C65.6563 106.079 65.8498 105.558 66.2703 105.143C66.6954 104.728 67.3289 104.498 68.1708 104.453L71.5292 104.273ZM70.3617 105.356L68.6142 105.449C67.8815 105.488 67.4143 105.627 67.2126 105.866C67.0154 106.105 66.9249 106.377 66.9412 106.681C66.9643 107.114 67.1361 107.424 67.4564 107.612C67.7811 107.796 68.3394 107.866 69.1313 107.824L70.4897 107.752L70.3617 105.356Z" fill="#444444"/>
<path d="M79.9441 105.808C79.4329 104.565 79.4 103.502 79.8452 102.619C80.2182 101.884 80.8199 101.346 81.6503 101.005C82.5734 100.625 83.4526 100.619 84.288 100.985C85.1217 101.347 85.7577 102.061 86.1961 103.127C86.5513 103.991 86.7004 104.726 86.6435 105.331C86.5891 105.93 86.3695 106.468 85.9848 106.947C85.6042 107.423 85.121 107.782 84.5351 108.023C83.5952 108.409 82.7105 108.421 81.881 108.057C81.0558 107.692 80.4101 106.942 79.9441 105.808ZM81.1137 105.327C81.4672 106.187 81.9199 106.755 82.4717 107.031C83.0219 107.302 83.5815 107.321 84.1505 107.087C84.7153 106.855 85.0969 106.447 85.2953 105.863C85.4938 105.279 85.4119 104.546 85.0498 103.665C84.7084 102.835 84.2606 102.285 83.7063 102.015C83.1544 101.739 82.5981 101.716 82.0375 101.947C81.4685 102.181 81.0839 102.588 80.8838 103.168C80.6836 103.748 80.7603 104.468 81.1137 105.327Z" fill="#444444"/>
<path d="M86.4672 98.7331L91.2372 95.5607L95.2575 101.606L94.2329 102.287L90.7766 97.0902L88.0559 98.8998L91.5121 104.097L90.4876 104.778L86.4672 98.7331Z" fill="#444444"/>
<path d="M99.673 94.124L100.685 93.3377C101.067 94.0054 101.211 94.6759 101.116 95.3492C101.022 96.0226 100.676 96.6568 100.079 97.2521C99.3269 98.0017 98.4997 98.3661 97.5975 98.3454C96.6952 98.3181 95.8274 97.8865 94.9941 97.0506C94.1319 96.1856 93.6854 95.2922 93.6546 94.3706C93.6239 93.4489 93.9635 92.6341 94.6736 91.9263C95.3611 91.241 96.156 90.9152 97.0582 90.9489C97.9605 90.9825 98.8347 91.4238 99.6808 92.2727C99.7323 92.3243 99.8079 92.4034 99.9076 92.5099L96.0732 96.3321C96.6685 96.8647 97.2594 97.138 97.8459 97.1518C98.4324 97.1656 98.9402 96.9586 99.3695 96.5307C99.689 96.2122 99.8781 95.8564 99.9368 95.4633C99.9954 95.0703 99.9075 94.6238 99.673 94.124ZM95.4074 95.5673L98.2783 92.7055C97.8085 92.3116 97.3754 92.0966 96.9791 92.0605C96.3669 92.0015 95.8397 92.1924 95.3976 92.6332C94.9973 93.0321 94.7936 93.5023 94.7863 94.0437C94.7822 94.5818 94.9892 95.0897 95.4074 95.5673Z" fill="#444444"/>
<path d="M98.2184 87.9807L98.9161 86.9671L101.501 88.746C101.723 88.4231 101.816 88.1553 101.78 87.9424C101.747 87.7257 101.518 87.2862 101.094 86.6239C100.758 86.0994 100.558 85.7235 100.493 85.4962C100.428 85.269 100.425 85.0566 100.483 84.859C100.542 84.6614 100.694 84.3843 100.939 84.0276L101.079 83.8249L101.918 84.4024L101.718 84.6801C101.535 84.9466 101.457 85.1445 101.484 85.2739C101.512 85.4096 101.675 85.6989 101.973 86.142C102.258 86.5646 102.431 86.8914 102.494 87.1224C102.556 87.3534 102.557 87.6448 102.498 87.9966C102.914 87.6412 103.614 87.4923 104.598 87.5498L107.214 87.7156L106.447 88.8306L103.85 88.6366C103.326 88.6023 102.949 88.6277 102.719 88.7128C102.485 88.7953 102.289 88.9511 102.131 89.1801L104.896 91.083L104.199 92.0966L98.2184 87.9807Z" fill="#444444"/>
<path d="M110.849 86.5312L109.742 86.1724C109.921 85.9586 110.052 85.7606 110.136 85.5785C110.25 85.3301 110.3 85.1123 110.286 84.9252C110.272 84.738 110.212 84.5626 110.107 84.3988C110.028 84.2769 109.803 84.0354 109.432 83.6743C109.379 83.625 109.304 83.55 109.204 83.4492L101.445 82.9111L102 81.7063L106.451 82.0915C107.017 82.1364 107.599 82.2113 108.198 82.3163C107.744 81.9518 107.313 81.5681 106.907 81.1652L103.712 77.9866L104.226 76.8688L109.778 82.464C110.379 83.0665 110.782 83.5052 110.986 83.78C111.263 84.1483 111.428 84.4998 111.479 84.8346C111.535 85.1713 111.481 85.5176 111.317 85.8737C111.218 86.0889 111.062 86.3081 110.849 86.5312Z" fill="#444444"/>
<path d="M104.425 75.5791L104.726 74.386L107.655 75.1251L108.49 71.8175L105.56 71.0785L105.861 69.8854L112.9 71.6611L112.599 72.8542L109.477 72.0667L108.643 75.3742L111.765 76.1617L111.464 77.3548L104.425 75.5791Z" fill="#444444"/>
<path d="M110.812 63.5399L111.045 62.3422C111.869 62.5266 112.5 62.9065 112.939 63.4821C113.373 64.0529 113.565 64.7339 113.515 65.5253C113.453 66.5169 113.08 67.2947 112.396 67.859C111.707 68.4184 110.758 68.66 109.549 68.5838C108.766 68.5345 108.09 68.3617 107.52 68.0655C106.949 67.7693 106.535 67.3482 106.277 66.8023C106.015 66.2515 105.904 65.6646 105.943 65.0415C105.992 64.2546 106.233 63.6237 106.665 63.1486C107.092 62.6732 107.676 62.388 108.417 62.2932L108.526 63.4987C108.033 63.5818 107.654 63.7611 107.39 64.0367C107.126 64.3078 106.981 64.648 106.956 65.0573C106.917 65.6759 107.108 66.1925 107.529 66.6072C107.946 67.0216 108.634 67.259 109.594 67.3195C110.567 67.3808 111.286 67.2389 111.751 66.8937C112.216 66.5485 112.467 66.0758 112.505 65.4754C112.535 64.9933 112.413 64.5814 112.137 64.2399C111.862 63.8983 111.42 63.665 110.812 63.5399Z" fill="#444444"/>
<path d="M106.082 61.414L105.406 55.5535L106.418 55.4367L106.686 57.7591L112.886 57.0434L113.026 58.2589L106.826 58.9747L107.094 61.2972L106.082 61.414Z" fill="#444444"/>
<path d="M104.823 53.6351L103.987 50.9242C103.782 50.2579 103.686 49.7462 103.7 49.389C103.708 49.0288 103.825 48.6876 104.05 48.3655C104.273 48.039 104.592 47.812 105.006 47.6844C105.336 47.5823 105.648 47.5627 105.939 47.6255C106.224 47.6853 106.492 47.8269 106.742 48.0502C106.75 47.69 106.872 47.3569 107.106 47.0508C107.335 46.7417 107.655 46.5241 108.064 46.3978C108.735 46.2386 109.295 46.3233 109.745 46.6521C110.194 46.9808 110.545 47.5524 110.796 48.3668L111.761 51.4958L104.823 53.6351ZM107.381 51.5588L106.994 50.3046C106.839 49.8038 106.707 49.4678 106.597 49.2967C106.487 49.1255 106.331 48.9901 106.129 48.8904C105.922 48.792 105.707 48.7771 105.485 48.8456C105.119 48.9584 104.905 49.1676 104.842 49.4732C104.777 49.7745 104.842 50.2386 105.035 50.8658L105.434 52.1592L107.381 51.5588ZM110.431 50.6181L109.954 49.0699C109.748 48.4036 109.531 47.9698 109.302 47.7686C109.069 47.5687 108.761 47.5207 108.378 47.6245C108.156 47.6929 107.973 47.8279 107.83 48.0294C107.683 48.2322 107.621 48.4564 107.644 48.702C107.663 48.9489 107.751 49.3271 107.908 49.8366L108.347 51.2607L110.431 50.6181Z" fill="#444444"/>
<path d="M105.531 39.1821C106.088 39.3986 106.538 39.6552 106.88 39.9521C107.22 40.2449 107.505 40.6037 107.735 41.0286C108.114 41.73 108.236 42.3612 108.099 42.9224C107.958 43.4856 107.621 43.9115 107.088 44.2C106.775 44.3692 106.453 44.453 106.121 44.4516C105.782 44.4483 105.473 44.3747 105.193 44.2308C104.911 44.0829 104.651 43.8864 104.415 43.6412C104.244 43.4592 104.016 43.1678 103.732 42.7671C103.155 41.9498 102.683 41.3737 102.315 41.039C102.165 41.1152 102.069 41.1642 102.029 41.1859C101.588 41.4245 101.333 41.6948 101.263 41.9968C101.168 42.4056 101.268 42.8826 101.563 43.4277C101.839 43.9367 102.133 44.2647 102.446 44.4116C102.752 44.5566 103.163 44.5647 103.679 44.4359L104.107 45.5721C103.602 45.721 103.152 45.76 102.756 45.6892C102.356 45.6206 101.97 45.418 101.596 45.0815C101.218 44.747 100.88 44.3053 100.583 43.7562C100.288 43.2111 100.113 42.7335 100.056 42.3234C100 41.9133 100.027 41.575 100.137 41.3084C100.242 41.0439 100.426 40.7994 100.688 40.5748C100.853 40.4389 101.176 40.2409 101.657 39.9806L103.1 39.1997C104.106 38.6553 104.731 38.2884 104.976 38.099C105.214 37.9077 105.419 37.6778 105.59 37.4092L106.201 38.5395C106.037 38.7732 105.814 38.9874 105.531 39.1821ZM103.163 40.5802C103.536 40.8863 103.991 41.4017 104.528 42.1265C104.833 42.5367 105.075 42.8123 105.255 42.9533C105.435 43.0943 105.63 43.1726 105.841 43.1882C106.048 43.206 106.245 43.1639 106.433 43.062C106.722 42.9058 106.904 42.6674 106.979 42.3469C107.052 42.0223 106.975 41.6496 106.747 41.2288C106.522 40.812 106.231 40.49 105.875 40.263C105.515 40.0381 105.135 39.9352 104.736 39.9542C104.429 39.9703 104.036 40.1074 103.559 40.3655L103.163 40.5802Z" fill="#444444"/>
</g>
<rect x="48.1954" y="45.9888" width="33.1957" height="37.3804" rx="0.798943" stroke="#444444" stroke-width="1.59789"/>
<line x1="54.5812" y1="54.975" x2="75.0054" y2="54.975" stroke="#444444" stroke-width="1.59789" stroke-linecap="round"/>
<line x1="54.5812" y1="63.8801" x2="75.0054" y2="63.8801" stroke="#444444" stroke-width="1.59789" stroke-linecap="round"/>
<line x1="54.5812" y1="72.785" x2="67.5233" y2="72.785" stroke="#444444" stroke-width="1.59789" stroke-linecap="round"/>
<path d="M71.2787 71.4798L73.0423 74.4866C73.3434 74.9999 74.0797 75.0157 74.4026 74.5159L77.4551 69.7901" stroke="#444444" stroke-width="1.59789" stroke-linecap="round"/>
<defs>
<filter id="filter0_f_4_42" x="-24.0365" y="-24.1508" width="177.66" height="177.66" filterUnits="userSpaceOnUse" color-interpolation-filters="sRGB">
<feFlood flood-opacity="0" result="BackgroundImageFix"/>
<feBlend mode="normal" in="SourceGraphic" in2="BackgroundImageFix" result="shape"/>
<feGaussianBlur stdDeviation="18.75" result="effect1_foregroundBlur_4_42"/>
</filter>
<filter id="filter1_d_4_42" x="-54.7261" y="-46.2072" width="256.431" height="256.701" filterUnits="userSpaceOnUse" color-interpolation-filters="sRGB">
<feFlood flood-opacity="0" result="BackgroundImageFix"/>
<feColorMatrix in="SourceAlpha" type="matrix" values="0 0 0 0 0 0 0 0 0 0 0 0 0 0 0 0 0 0 127 0" result="hardAlpha"/>
<feOffset dx="8" dy="18"/>
<feGaussianBlur stdDeviation="40"/>
<feComposite in2="hardAlpha" operator="out"/>
<feColorMatrix type="matrix" values="0 0 0 0 0 0 0 0 0 0 0 0 0 0 0 0 0 0 0.12 0"/>
<feBlend mode="normal" in2="BackgroundImageFix" result="effect1_dropShadow_4_42"/>
<feBlend mode="normal" in="SourceGraphic" in2="effect1_dropShadow_4_42" result="shape"/>
</filter>
</defs>
</svg>
