<svg width="179" height="179" viewBox="0 0 179 179" fill="none" xmlns="http://www.w3.org/2000/svg">
<path d="M105.333 47.039L104.997 47.9425C104.509 47.7659 104.17 47.6622 103.983 47.6313C103.79 47.5989 103.584 47.6387 103.362 47.7509C103.141 47.8631 102.982 48.0473 102.887 48.3037C102.771 48.6155 102.784 48.9022 102.925 49.1636C103.06 49.4278 103.292 49.6209 103.621 49.7431C104.271 49.9843 104.868 49.7709 105.412 49.1029L106.441 49.6893C105.625 50.8398 104.563 51.1723 103.256 50.6868C102.53 50.417 102.035 50.0074 101.773 49.4577C101.506 48.9065 101.475 48.3554 101.68 47.8042C101.886 47.2489 102.319 46.9066 102.98 46.7776C102.706 46.467 102.537 46.1368 102.473 45.7871C102.406 45.4417 102.445 45.0746 102.59 44.6858C102.817 44.0749 103.223 43.6618 103.808 43.4466C104.394 43.2314 105.086 43.2721 105.885 43.5688C107.436 44.1448 108.079 45.1687 107.814 46.6406L106.646 46.4691C106.709 45.9969 106.636 45.5856 106.426 45.2353C106.211 44.8834 105.91 44.6353 105.521 44.4909C105.132 44.3465 104.769 44.3357 104.432 44.4583C104.089 44.5837 103.854 44.8173 103.727 45.1591C103.628 45.4239 103.624 45.6848 103.713 45.9416C103.803 46.1984 103.93 46.3844 104.097 46.4996C104.261 46.6191 104.585 46.7685 105.068 46.9478C105.106 46.9621 105.195 46.9925 105.333 47.039Z" fill="#444444"/>
<path d="M94.9669 42.0896C95.48 41.7823 95.9588 41.5849 96.403 41.4972C96.8428 41.4087 97.301 41.4042 97.7775 41.4835C98.5642 41.6146 99.137 41.9063 99.4959 42.3588C99.854 42.8158 99.9833 43.3433 99.8838 43.9411C99.8254 44.2918 99.6935 44.5978 99.4883 44.8593C99.2778 45.1246 99.0298 45.3235 98.7444 45.4562C98.4544 45.5881 98.1401 45.672 97.8015 45.708C97.5528 45.7312 97.183 45.732 96.6923 45.7103C95.6928 45.664 94.9481 45.6832 94.4581 45.7679C94.4259 45.9335 94.4061 46.0387 94.3986 46.0837C94.3162 46.5782 94.3728 46.9457 94.5684 47.1861C94.8329 47.512 95.2708 47.7259 95.8822 47.8277C96.4531 47.9228 96.8925 47.892 97.2004 47.7354C97.5031 47.5826 97.7619 47.263 97.9769 46.7767L99.1367 47.1362C98.9442 47.6262 98.6985 48.0057 98.3996 48.2747C98.1 48.5482 97.7025 48.7292 97.2073 48.8177C96.7113 48.9106 96.1554 48.9058 95.5395 48.8032C94.9282 48.7014 94.4434 48.5467 94.0853 48.3392C93.7271 48.1317 93.4765 47.9029 93.3334 47.6526C93.1895 47.4069 93.1093 47.1117 93.0928 46.7671C93.0868 46.5536 93.1287 46.1771 93.2185 45.6376L93.4881 44.0193C93.676 42.891 93.7704 42.1721 93.7711 41.8627C93.7666 41.557 93.7107 41.2543 93.6035 40.9546L94.8712 41.1658C94.9552 41.4385 94.987 41.7464 94.9669 42.0896ZM94.6165 44.8171C95.087 44.7107 95.7733 44.6679 96.6753 44.6888C97.1863 44.7 97.5526 44.6778 97.7744 44.6224C97.9962 44.5669 98.1778 44.4609 98.3194 44.3043C98.4603 44.1522 98.5483 43.9705 98.5835 43.7592C98.6374 43.4355 98.5609 43.1456 98.3541 42.8894C98.1428 42.6324 97.8012 42.4646 97.3292 42.386C96.8616 42.3082 96.429 42.34 96.0312 42.4817C95.6326 42.6278 95.3183 42.8642 95.0883 43.1909C94.9123 43.4434 94.7797 43.8371 94.6906 44.3721L94.6165 44.8171Z" fill="#444444"/>
<path d="M90.3699 48.2157L84.6443 48.3981L84.4131 41.142L85.6429 41.1028L85.8417 47.3409L89.1076 47.2368L88.9088 40.9988L90.1387 40.9596L90.3699 48.2157Z" fill="#444444"/>
<path d="M82.2969 45.2011C82.6018 46.5105 82.4636 47.5651 81.8825 48.3648C81.3963 49.0302 80.716 49.4646 79.8416 49.6682C78.8696 49.8945 78.0007 49.7599 77.2349 49.2644C76.4702 48.7733 75.9571 47.9663 75.6956 46.8434C75.4838 45.9335 75.4545 45.1846 75.6077 44.5968C75.7576 44.0144 76.0608 43.518 76.5173 43.1076C76.9695 42.6981 77.504 42.4216 78.121 42.278C79.1108 42.0475 79.9859 42.1783 80.7462 42.6704C81.502 43.1636 82.0189 44.0071 82.2969 45.2011ZM81.0652 45.4879C80.8544 44.5824 80.4988 43.9493 79.9983 43.5885C79.4989 43.2322 78.9496 43.1238 78.3504 43.2633C77.7556 43.4018 77.3135 43.7434 77.0238 44.2881C76.7342 44.8328 76.6974 45.569 76.9134 46.4967C77.1169 47.3711 77.4707 47.9859 77.9745 48.3412C78.475 48.702 79.0203 48.8136 79.6107 48.6762C80.2099 48.5367 80.6548 48.1968 80.9455 47.6565C81.2361 47.1162 81.276 46.3934 81.0652 45.4879Z" fill="#444444"/>
<path d="M74.1903 51.3691L69.0005 53.7618L65.9609 47.169L67.0721 46.6567L69.6853 52.3245L72.6465 50.9593L71.1324 47.6753C70.7794 46.9096 70.5714 46.3933 70.5085 46.1262C70.4456 45.8591 70.4839 45.583 70.6234 45.2979C70.763 45.0127 71.0438 44.7729 71.4659 44.5782C71.7267 44.458 72.0344 44.3362 72.389 44.2129L72.8183 45.1441L72.3279 45.3702C72.0961 45.477 71.9411 45.5761 71.8627 45.6674C71.7863 45.7629 71.7554 45.87 71.77 45.9887C71.7846 46.1075 71.9235 46.4524 72.1868 47.0235L74.1903 51.3691Z" fill="#444444"/>
<path d="M67.4125 54.9718L66.4174 55.6957L64.64 53.2523L61.8815 55.2589L63.6589 57.7023L62.6639 58.4261L58.3933 52.5553L59.3883 51.8315L61.2823 54.4352L64.0408 52.4286L62.1468 49.8249L63.1418 49.101L67.4125 54.9718Z" fill="#444444"/>
<path d="M61.3991 59.815L60.5649 60.7195L56.4946 56.9655L58.2523 63.227L57.3532 64.2019L52.0166 59.28L52.8508 58.3755L56.896 62.1063L55.1634 55.868L56.0625 54.8931L61.3991 59.815Z" fill="#444444"/>
<path d="M56.4687 65.6332L53.3628 70.6489L52.4968 70.1126L53.7277 68.125L48.4214 64.8392L49.0656 63.7988L54.3719 67.0847L55.6027 65.097L56.4687 65.6332Z" fill="#444444"/>
<path d="M52.639 72.4892L52.1938 73.6362L49.5491 72.6097L48.9851 74.0627C48.6174 75.0101 48.1498 75.667 47.5823 76.0333C47.0174 76.4056 46.412 76.4664 45.7663 76.2157C45.2012 75.9964 44.8002 75.5939 44.5631 75.0081C44.3287 74.4283 44.3937 73.6689 44.7581 72.73L45.8712 69.8622L52.639 72.4892ZM46.3691 71.3754L45.9016 72.5799C45.6196 73.3064 45.5077 73.8593 45.5657 74.2387C45.6238 74.6181 45.8419 74.8812 46.22 75.0279C46.5131 75.1417 46.8189 75.1284 47.1374 74.9881C47.4559 74.8477 47.7676 74.3845 48.0727 73.5985L48.5996 72.2412L46.3691 71.3754Z" fill="#444444"/>
<path d="M42.798 89.9763C42.4261 89.5078 42.1676 89.0591 42.0224 88.6302C41.8771 88.2058 41.8126 87.7522 41.8288 87.2694C41.8556 86.4723 42.0698 85.8662 42.4713 85.4511C42.8774 85.0361 43.3834 84.8388 43.9891 84.8592C44.3444 84.8711 44.6651 84.9617 44.9513 85.1309C45.2418 85.3048 45.4715 85.5246 45.6404 85.7902C45.8092 86.0603 45.9336 86.3609 46.0137 86.6919C46.0693 86.9355 46.1185 87.3019 46.1614 87.7912C46.2464 88.7882 46.363 89.5239 46.5112 89.9986C46.6796 90.0088 46.7865 90.0147 46.8321 90.0162C47.3331 90.0331 47.69 89.9288 47.9028 89.7034C48.1912 89.3984 48.3458 88.9363 48.3666 88.3168C48.3861 87.7384 48.298 87.3068 48.1024 87.0221C47.9112 86.742 47.5604 86.5273 47.0502 86.3779L47.2546 85.181C47.7656 85.3076 48.174 85.5015 48.4799 85.7625C48.7903 86.0238 49.0218 86.3941 49.1744 86.8734C49.3315 87.3529 49.3996 87.9047 49.3786 88.5287C49.3578 89.1481 49.268 89.649 49.1092 90.0312C48.9505 90.4135 48.7564 90.6919 48.5271 90.8666C48.3024 91.0415 48.0202 91.1596 47.6808 91.2212C47.4699 91.2551 47.0911 91.2629 46.5446 91.2445L44.9049 91.1894C43.7616 91.151 43.0366 91.1517 42.7297 91.1915C42.4273 91.2361 42.1345 91.3311 41.8515 91.4766L41.8947 90.1922C42.154 90.0732 42.4551 90.0013 42.798 89.9763ZM45.5479 89.9662C45.3807 89.5137 45.2484 88.839 45.1508 87.9419C45.095 87.4339 45.025 87.0736 44.941 86.861C44.8569 86.6485 44.728 86.4822 44.5542 86.3624C44.3849 86.2427 44.1933 86.1793 43.9792 86.1721C43.6513 86.161 43.3738 86.2748 43.1469 86.5134C42.9199 86.7566 42.7983 87.1173 42.7822 87.5955C42.7663 88.0692 42.8546 88.494 43.0472 88.8698C43.2443 89.2458 43.5199 89.5264 43.8739 89.7115C44.1473 89.853 44.555 89.9328 45.097 89.951L45.5479 89.9662Z" fill="#444444"/>
<path d="M49.4737 93.7307L49.6737 94.9448L46.6924 95.436L47.247 98.8018L50.2283 98.3106L50.4283 99.5247L43.2651 100.705L43.0651 99.4908L46.242 98.9674L45.6874 95.6016L42.5105 96.125L42.3105 94.9109L49.4737 93.7307Z" fill="#444444"/>
<path d="M51.144 101.302L51.5556 102.461L48.5988 103.511C48.7299 103.88 48.8922 104.113 49.0858 104.209C49.2809 104.309 49.7709 104.381 50.5559 104.427C51.1779 104.462 51.5999 104.52 51.822 104.601C52.0441 104.682 52.218 104.804 52.3437 104.967C52.4693 105.13 52.6046 105.416 52.7495 105.824L52.8318 106.056L51.8719 106.397L51.764 106.072C51.6558 105.767 51.5413 105.588 51.4206 105.534C51.2941 105.477 50.964 105.44 50.4303 105.421C49.9212 105.404 49.5548 105.353 49.3312 105.268C49.1075 105.183 48.8707 105.013 48.6208 104.758C48.6645 105.304 48.3745 105.958 47.7507 106.721L46.0818 108.742L45.629 107.467L47.3093 105.478C47.6446 105.073 47.8452 104.753 47.9112 104.517C47.9816 104.279 47.9703 104.029 47.8772 103.767L44.7142 104.89L44.3026 103.73L51.144 101.302Z" fill="#444444"/>
<path d="M51.8987 114.251L52.4003 115.43C51.6571 115.629 50.9721 115.596 50.3453 115.333C49.7184 115.069 49.1936 114.573 48.7708 113.844C48.2383 112.925 48.0974 112.032 48.3481 111.165C48.605 110.3 49.2441 109.571 50.2653 108.979C51.3219 108.367 52.2997 108.163 53.1986 108.369C54.0976 108.575 54.7984 109.112 55.3012 109.979C55.7881 110.819 55.8999 111.671 55.6367 112.534C55.3735 113.398 54.7235 114.13 53.6865 114.732C53.6235 114.768 53.5277 114.821 53.3992 114.89L50.6841 110.206C50.017 110.646 49.6018 111.147 49.4385 111.71C49.2752 112.274 49.3456 112.818 49.6495 113.342C49.8758 113.733 50.1714 114.006 50.5364 114.163C50.9014 114.321 51.3555 114.35 51.8987 114.251ZM51.5937 109.758L53.6266 113.265C54.1275 112.911 54.446 112.548 54.5822 112.174C54.7957 111.597 54.7459 111.039 54.4328 110.498C54.1494 110.009 53.7469 109.692 53.2254 109.547C52.7062 109.405 52.1623 109.476 51.5937 109.758Z" fill="#444444"/>
<path d="M57.7628 113.915L61.6344 118.366L60.8659 119.034L59.3316 117.27L54.6225 121.366L53.8195 120.443L58.5285 116.347L56.9942 114.583L57.7628 113.915Z" fill="#444444"/>
<path d="M56.8694 127.418L57.4866 126.432C57.6505 126.658 57.8106 126.833 57.9669 126.959C58.18 127.13 58.379 127.232 58.564 127.263C58.749 127.295 58.9337 127.28 59.1182 127.218C59.2557 127.17 59.5447 127.011 59.9851 126.739C60.0457 126.7 60.137 126.645 60.2588 126.573L62.6685 119.178L63.7022 120.009L62.2457 124.232C62.0644 124.771 61.85 125.318 61.6024 125.873C62.0666 125.521 62.5435 125.197 63.0331 124.9L66.8937 122.575L67.8527 123.345L61.0748 127.369C60.3442 127.805 59.8208 128.089 59.5045 128.221C59.0799 128.4 58.6989 128.474 58.3616 128.443C58.0215 128.415 57.6987 128.278 57.3932 128.032C57.2085 127.884 57.0339 127.679 56.8694 127.418Z" fill="#444444"/>
<path d="M75.0156 126.745L79.7731 128.464L77.6495 134.34L78.3889 134.607L77.3457 137.494L76.3942 137.15L77.0935 135.215L71.7189 133.272L71.0195 135.208L70.068 134.864L71.1112 131.977L71.722 132.198C72.936 131.386 74.0338 129.569 75.0156 126.745ZM75.6338 128.051C74.7473 130.236 73.812 131.751 72.8278 132.597L76.4987 133.924L78.2761 129.006L75.6338 128.051Z" fill="#444444"/>
<path d="M82.596 128.911L88.2521 129.728L87.2136 136.913L86.0026 136.738L86.8953 130.561L83.6681 130.095L83.1508 133.674C83.0302 134.508 82.9237 135.055 82.8311 135.313C82.7385 135.571 82.5561 135.782 82.2838 135.945C82.0116 136.109 81.6454 136.157 81.1854 136.09C80.9012 136.049 80.5768 135.984 80.2122 135.895L80.3588 134.88L80.8933 134.957C81.1459 134.993 81.3299 134.995 81.4453 134.961C81.5614 134.922 81.6456 134.849 81.698 134.742C81.7504 134.634 81.8216 134.269 81.9115 133.647L82.596 128.911Z" fill="#444444"/>
<path d="M95.9429 129.273L96.3301 136.523L95.1082 136.588L94.9572 133.762L94.2473 133.8C93.815 133.823 93.4949 133.897 93.2871 134.022C93.0836 134.143 92.7955 134.516 92.4228 135.143L91.4357 136.784L89.9135 136.865L91.1335 134.842C91.5066 134.225 91.8914 133.866 92.2877 133.767C91.5818 133.709 91.0472 133.485 90.6841 133.093C90.3254 132.702 90.1319 132.24 90.1034 131.707C90.0699 131.079 90.2634 130.558 90.6839 130.143C91.109 129.728 91.7425 129.498 92.5844 129.453L95.9429 129.273ZM94.7753 130.356L93.0278 130.449C92.2951 130.488 91.8279 130.627 91.6262 130.866C91.429 131.105 91.3385 131.377 91.3548 131.681C91.3779 132.114 91.5497 132.424 91.8701 132.612C92.1948 132.796 92.753 132.866 93.5449 132.824L94.9033 132.752L94.7753 130.356Z" fill="#444444"/>
<path d="M104.358 130.808C103.847 129.565 103.814 128.502 104.259 127.619C104.632 126.884 105.234 126.346 106.064 126.005C106.987 125.625 107.866 125.619 108.702 125.985C109.535 126.347 110.171 127.061 110.61 128.127C110.965 128.991 111.114 129.726 111.057 130.331C111.003 130.93 110.783 131.468 110.398 131.947C110.018 132.423 109.535 132.782 108.949 133.023C108.009 133.409 107.124 133.421 106.295 133.057C105.469 132.692 104.824 131.942 104.358 130.808ZM105.527 130.327C105.881 131.187 106.333 131.755 106.885 132.031C107.435 132.302 107.995 132.321 108.564 132.087C109.129 131.855 109.511 131.447 109.709 130.863C109.907 130.279 109.826 129.546 109.463 128.665C109.122 127.835 108.674 127.285 108.12 127.015C107.568 126.739 107.012 126.716 106.451 126.947C105.882 127.181 105.498 127.588 105.297 128.168C105.097 128.748 105.174 129.468 105.527 130.327Z" fill="#444444"/>
<path d="M110.881 123.733L115.651 120.561L119.671 126.606L118.647 127.287L115.19 122.09L112.469 123.9L115.926 129.097L114.901 129.778L110.881 123.733Z" fill="#444444"/>
<path d="M124.087 119.124L125.098 118.338C125.481 119.005 125.625 119.676 125.53 120.349C125.435 121.023 125.09 121.657 124.493 122.252C123.74 123.002 122.913 123.366 122.011 123.345C121.109 123.318 120.241 122.887 119.408 122.051C118.545 121.186 118.099 120.292 118.068 119.371C118.037 118.449 118.377 117.634 119.087 116.926C119.775 116.241 120.57 115.915 121.472 115.949C122.374 115.983 123.248 116.424 124.094 117.273C124.146 117.324 124.222 117.403 124.321 117.51L120.487 121.332C121.082 121.865 121.673 122.138 122.259 122.152C122.846 122.166 123.354 121.959 123.783 121.531C124.103 121.212 124.292 120.856 124.35 120.463C124.409 120.07 124.321 119.624 124.087 119.124ZM119.821 120.567L122.692 117.705C122.222 117.312 121.789 117.097 121.393 117.061C120.781 117.002 120.253 117.192 119.811 117.633C119.411 118.032 119.207 118.502 119.2 119.044C119.196 119.582 119.403 120.09 119.821 120.567Z" fill="#444444"/>
<path d="M122.632 112.981L123.33 111.967L125.914 113.746C126.137 113.423 126.23 113.155 126.194 112.942C126.16 112.726 125.932 112.286 125.508 111.624C125.172 111.099 124.971 110.723 124.906 110.496C124.841 110.269 124.838 110.057 124.897 109.859C124.955 109.661 125.107 109.384 125.353 109.028L125.492 108.825L126.331 109.402L126.132 109.68C125.948 109.947 125.87 110.145 125.897 110.274C125.926 110.41 126.089 110.699 126.387 111.142C126.672 111.565 126.845 111.891 126.907 112.122C126.97 112.353 126.971 112.645 126.911 112.997C127.328 112.641 128.028 112.492 129.011 112.55L131.628 112.716L130.86 113.831L128.263 113.637C127.739 113.602 127.362 113.628 127.132 113.713C126.898 113.795 126.703 113.951 126.545 114.18L129.31 116.083L128.612 117.097L122.632 112.981Z" fill="#444444"/>
<path d="M135.262 111.531L134.156 111.172C134.334 110.959 134.466 110.761 134.55 110.578C134.664 110.33 134.714 110.112 134.7 109.925C134.685 109.738 134.626 109.563 134.521 109.399C134.441 109.277 134.216 109.035 133.846 108.674C133.793 108.625 133.717 108.55 133.618 108.449L125.859 107.911L126.413 106.706L130.864 107.091C131.43 107.136 132.013 107.211 132.612 107.316C132.158 106.952 131.727 106.568 131.321 106.165L128.125 102.987L128.64 101.869L134.192 107.464C134.793 108.067 135.195 108.505 135.4 108.78C135.677 109.148 135.841 109.5 135.893 109.835C135.948 110.171 135.894 110.518 135.731 110.874C135.632 111.089 135.475 111.308 135.262 111.531Z" fill="#444444"/>
<path d="M128.838 100.579L129.139 99.386L132.069 100.125L132.903 96.8175L129.974 96.0785L130.275 94.8854L137.314 96.6611L137.013 97.8542L133.891 97.0667L133.057 100.374L136.179 101.162L135.878 102.355L128.838 100.579Z" fill="#444444"/>
<path d="M135.225 88.5399L135.458 87.3422C136.282 87.5266 136.913 87.9065 137.352 88.4821C137.786 89.0529 137.979 89.7339 137.929 90.5253C137.866 91.5169 137.493 92.2947 136.809 92.859C136.121 93.4184 135.172 93.66 133.962 93.5838C133.18 93.5345 132.504 93.3617 131.933 93.0655C131.363 92.7693 130.949 92.3482 130.691 91.8023C130.429 91.2515 130.317 90.6646 130.356 90.0415C130.406 89.2546 130.647 88.6237 131.078 88.1486C131.506 87.6732 132.09 87.388 132.831 87.2932L132.94 88.4987C132.446 88.5818 132.067 88.7611 131.803 89.0367C131.54 89.3078 131.395 89.648 131.369 90.0573C131.33 90.6759 131.521 91.1925 131.943 91.6072C132.36 92.0216 133.048 92.259 134.008 92.3195C134.981 92.3808 135.7 92.2389 136.165 91.8937C136.629 91.5485 136.881 91.0758 136.918 90.4754C136.949 89.9933 136.826 89.5814 136.551 89.2399C136.276 88.8983 135.834 88.665 135.225 88.5399Z" fill="#444444"/>
<path d="M130.496 86.414L129.819 80.5535L130.831 80.4367L131.099 82.7591L137.299 82.0434L137.44 83.2589L131.24 83.9747L131.508 86.2972L130.496 86.414Z" fill="#444444"/>
<path d="M129.237 78.6351L128.401 75.9242C128.195 75.2579 128.1 74.7462 128.113 74.389C128.122 74.0288 128.238 73.6876 128.463 73.3655C128.687 73.039 129.005 72.812 129.419 72.6844C129.75 72.5823 130.061 72.5627 130.352 72.6255C130.638 72.6853 130.906 72.8269 131.156 73.0502C131.164 72.69 131.285 72.3569 131.52 72.0508C131.749 71.7417 132.068 71.5241 132.478 71.3978C133.149 71.2386 133.709 71.3233 134.158 71.6521C134.608 71.9808 134.958 72.5524 135.209 73.3668L136.174 76.4958L129.237 78.6351ZM131.794 76.5588L131.408 75.3046C131.253 74.8038 131.121 74.4678 131.011 74.2967C130.901 74.1255 130.745 73.9901 130.542 73.8904C130.335 73.792 130.121 73.7771 129.899 73.8456C129.533 73.9584 129.319 74.1676 129.255 74.4732C129.191 74.7745 129.255 75.2386 129.449 75.8658L129.848 77.1592L131.794 76.5588ZM134.845 75.6181L134.367 74.0699C134.162 73.4036 133.945 72.9698 133.716 72.7686C133.482 72.5687 133.174 72.5207 132.791 72.6245C132.569 72.6929 132.387 72.8279 132.244 73.0294C132.097 73.2322 132.035 73.4564 132.058 73.702C132.077 73.9489 132.165 74.3271 132.322 74.8366L132.761 76.2607L134.845 75.6181Z" fill="#444444"/>
<path d="M129.944 64.1821C130.502 64.3986 130.952 64.6552 131.294 64.9521C131.634 65.2449 131.918 65.6037 132.148 66.0286C132.528 66.73 132.649 67.3612 132.513 67.9224C132.372 68.4856 132.035 68.9115 131.502 69.2C131.189 69.3692 130.867 69.453 130.534 69.4516C130.195 69.4483 129.886 69.3747 129.606 69.2308C129.324 69.0829 129.065 68.8864 128.829 68.6412C128.658 68.4592 128.43 68.1678 128.146 67.7671C127.569 66.9498 127.096 66.3737 126.729 66.039C126.578 66.1152 126.483 66.1642 126.443 66.1859C126.002 66.4245 125.747 66.6948 125.677 66.9968C125.582 67.4056 125.682 67.8826 125.977 68.4277C126.253 68.9367 126.547 69.2647 126.859 69.4116C127.166 69.5566 127.577 69.5647 128.093 69.4359L128.521 70.5721C128.016 70.721 127.566 70.76 127.17 70.6892C126.77 70.6206 126.383 70.418 126.009 70.0815C125.631 69.747 125.294 69.3053 124.997 68.7562C124.702 68.2111 124.526 67.7335 124.47 67.3234C124.414 66.9133 124.441 66.575 124.55 66.3084C124.656 66.0439 124.84 65.7994 125.102 65.5748C125.266 65.4389 125.589 65.2409 126.07 64.9806L127.513 64.1997C128.519 63.6553 129.145 63.2884 129.389 63.099C129.628 62.9077 129.832 62.6778 130.003 62.4092L130.615 63.5395C130.451 63.7732 130.228 63.9874 129.944 64.1821ZM127.576 65.5802C127.949 65.8863 128.404 66.4017 128.942 67.1265C129.247 67.5367 129.489 67.8123 129.669 67.9533C129.849 68.0943 130.044 68.1726 130.255 68.1882C130.461 68.206 130.659 68.1639 130.847 68.062C131.136 67.9058 131.317 67.6674 131.393 67.3469C131.466 67.0223 131.388 66.6496 131.161 66.2288C130.935 65.812 130.644 65.49 130.288 65.263C129.928 65.0381 129.549 64.9352 129.15 64.9542C128.842 64.9703 128.45 65.1074 127.973 65.3655L127.576 65.5802Z" fill="#444444"/>
<rect x="72.6089" y="70.9888" width="33.1957" height="37.3804" rx="0.798943" stroke="#444444" stroke-width="1.59789"/>
<line x1="78.9948" y1="79.975" x2="99.419" y2="79.975" stroke="#444444" stroke-width="1.59789" stroke-linecap="round"/>
<line x1="78.9948" y1="88.8801" x2="99.419" y2="88.8801" stroke="#444444" stroke-width="1.59789" stroke-linecap="round"/>
<line x1="78.9948" y1="97.785" x2="91.9368" y2="97.785" stroke="#444444" stroke-width="1.59789" stroke-linecap="round"/>
<path d="M95.6922 96.4798L97.4559 99.4866C97.7569 99.9999 98.4933 100.016 98.8161 99.5159L101.869 94.7901" stroke="#444444" stroke-width="1.59789" stroke-linecap="round"/>
<g filter="url(#filter0_f_2_396)">
<circle cx="89.2068" cy="89.679" r="51.3298" fill="#52749A" fill-opacity="0.2"/>
</g>
<defs>
<filter id="filter0_f_2_396" x="0.326759" y="0.798927" width="177.76" height="177.76" filterUnits="userSpaceOnUse" color-interpolation-filters="sRGB">
<feFlood flood-opacity="0" result="BackgroundImageFix"/>
<feBlend mode="normal" in="SourceGraphic" in2="BackgroundImageFix" result="shape"/>
<feGaussianBlur stdDeviation="18.7752" result="effect1_foregroundBlur_2_396"/>
</filter>
</defs>
</svg>
