<svg width="17" height="21" viewBox="0 0 17 21" fill="none" xmlns="http://www.w3.org/2000/svg">
<path d="M13.1289 4.92599C20.4183 13.3991 15.2166 19.0802 11.8837 20.734C13.4542 15.2043 10.8785 10.7927 9.21514 9.40574C9.00886 13.3508 8.01185 15.1106 7.53913 15.4974C8.00325 14.2082 7.34574 12.5536 6.95897 11.8875C6.75269 13.5378 5.7418 14.7646 5.44136 15.4974C4.51028 17.7683 6.00606 20.2339 6.37134 20.734C0.208338 19.1752 -0.322894 14.0049 1.25407 11.6941C2.72715 9.53563 2.81806 8.07893 3.00379 7.12544C3.9473 8.40862 4.05738 9.61003 3.99447 10.0503C5.61732 8.88038 6.90366 3.27274 7.34396 0.615173C11.42 3.55895 12.7182 7.0282 12.8578 8.39485C13.3087 7.90922 13.2265 5.87993 13.1289 4.92599Z" fill="#FF4141"/>
</svg>
