<svg width="12" height="12" viewBox="0 0 12 12" fill="none" xmlns="http://www.w3.org/2000/svg">
<path d="M11.9236 1.2959C11.9626 1.25685 11.9626 1.19353 11.9236 1.15448L10.8606 0.0915237C10.8216 0.0524713 10.7582 0.0524712 10.7192 0.0915237L6.08583 4.72489C6.04677 4.76395 5.98346 4.76395 5.94441 4.72489L1.31104 0.0915235C1.27198 0.0524711 1.20867 0.0524712 1.16961 0.0915237L0.10666 1.15448C0.067608 1.19353 0.067608 1.25685 0.10666 1.2959L4.74003 5.92927C4.77908 5.96832 4.77908 6.03164 4.74003 6.07069L0.10666 10.7041C0.0676078 10.7431 0.0676079 10.8064 0.10666 10.8455L1.16961 11.9084C1.20867 11.9475 1.27198 11.9475 1.31104 11.9084L5.94441 7.27506C5.98346 7.23601 6.04677 7.23601 6.08583 7.27506L10.7192 11.9084C10.7582 11.9475 10.8216 11.9475 10.8606 11.9084L11.9236 10.8455C11.9626 10.8064 11.9626 10.7431 11.9236 10.7041L7.2902 6.07069C7.25115 6.03164 7.25115 5.96832 7.2902 5.92927L11.9236 1.2959Z" fill="#444444"/>
</svg>
